<svg width="20" height="20" viewBox="0 0 20 20" fill="none" xmlns="http://www.w3.org/2000/svg">
<g id="Icon/Cart">
<path id="Cart" d="M4 5H17C17.037 5.00005 18 5.00127 18 6L17 12C16.911 12.491 16.5709 13 16.0642 13H6L6.09506 14.2985C6.16424 14.6291 6.45721 15 6.79145 15H15.6066C15.6443 15 15.6808 15.0054 15.7158 15.0155C16.441 15.1204 17 15.7462 17 16.5C17 17.3271 16.3271 18 15.5 18C14.6729 18 14 17.3271 14 16.5C14 16.3248 14.0302 16.1565 14.0857 16H7.91434C7.9698 16.1564 8 16.3248 8 16.5C8 17.3271 7.32711 18 6.5 18C5.67289 18 5 17.3271 5 16.5C5 16.0183 5.2282 15.589 5.58216 15.3143C5.39546 15.068 5.26019 14.7794 5.19962 14.4905L4.80856 12.6269L2 2H0.457618C0.204824 2 0 1.71822 0 1.46265C0 1.20707 0.204824 1 0.457618 1H2.56171C2.77221 1 2.95559 1.14534 3.00603 1.35206L4 5Z" fill="#BCBFC2"/>
</g>
</svg>
