<svg width="16" height="16" viewBox="0 0 16 16" fill="none" xmlns="http://www.w3.org/2000/svg">
<g id="icons/Loading/Line">
<g id="Shape">
<path d="M7.99967 1.33331C7.63148 1.33331 7.33301 1.63179 7.33301 1.99998V3.99998C7.33301 4.36817 7.63148 4.66665 7.99967 4.66665C8.36786 4.66665 8.66634 4.36817 8.66634 3.99998V1.99998C8.66634 1.63179 8.36786 1.33331 7.99967 1.33331Z" fill="#23262F"/>
<path d="M7.99967 11.3333C7.63148 11.3333 7.33301 11.6318 7.33301 12V14C7.33301 14.3682 7.63148 14.6666 7.99967 14.6666C8.36786 14.6666 8.66634 14.3682 8.66634 14V12C8.66634 11.6318 8.36786 11.3333 7.99967 11.3333Z" fill="#23262F"/>
<path d="M13.9997 7.33331C14.3679 7.33331 14.6663 7.63179 14.6663 7.99998C14.6663 8.36817 14.3679 8.66665 13.9997 8.66665H11.9997C11.6315 8.66665 11.333 8.36817 11.333 7.99998C11.333 7.63179 11.6315 7.33331 11.9997 7.33331H13.9997Z" fill="#23262F"/>
<path d="M4.66634 7.99998C4.66634 7.63179 4.36786 7.33331 3.99967 7.33331H1.99967C1.63148 7.33331 1.33301 7.63179 1.33301 7.99998C1.33301 8.36817 1.63148 8.66665 1.99967 8.66665H3.99967C4.36786 8.66665 4.66634 8.36817 4.66634 7.99998Z" fill="#23262F"/>
<path d="M11.7709 3.286C12.0313 3.02565 12.4534 3.02565 12.7138 3.286C12.9741 3.54635 12.9741 3.96846 12.7138 4.22881L11.2995 5.64302C11.0392 5.90337 10.6171 5.90337 10.3567 5.64302C10.0964 5.38267 10.0964 4.96056 10.3567 4.70021L11.7709 3.286Z" fill="#23262F"/>
<path d="M5.64263 10.357C5.38228 10.0966 4.96017 10.0966 4.69982 10.357L3.28561 11.7712C3.02526 12.0315 3.02526 12.4536 3.28561 12.714C3.54596 12.9743 3.96807 12.9743 4.22842 12.714L5.64263 11.2998C5.90298 11.0394 5.90298 10.6173 5.64263 10.357Z" fill="#23262F"/>
<path d="M12.7137 11.7713C12.9741 12.0316 12.9741 12.4537 12.7137 12.7141C12.4534 12.9744 12.0313 12.9744 11.7709 12.7141L10.3567 11.2998C10.0964 11.0395 10.0964 10.6174 10.3567 10.357C10.6171 10.0967 11.0392 10.0967 11.2995 10.357L12.7137 11.7713Z" fill="#23262F"/>
<path d="M5.64269 5.64293C5.90304 5.38258 5.90304 4.96047 5.64269 4.70012L4.22848 3.28591C3.96813 3.02556 3.54602 3.02556 3.28567 3.28591C3.02532 3.54626 3.02532 3.96837 3.28567 4.22872L4.69988 5.64293C4.96023 5.90328 5.38234 5.90328 5.64269 5.64293Z" fill="#23262F"/>
</g>
</g>
</svg>
