<svg width="20" height="20" viewBox="0 0 20 20" fill="none" xmlns="http://www.w3.org/2000/svg">
<g clip-path="url(#clip0_1_68957)">
<path fill-rule="evenodd" clip-rule="evenodd" d="M8.33366 15.001V17.501C8.33366 17.9612 8.70675 18.3343 9.16699 18.3343H10.8337C11.2939 18.3343 11.667 17.9612 11.667 17.501V15.001H13.3337V17.501C13.3337 18.8817 12.2144 20.001 10.8337 20.001H9.16699C7.78628 20.001 6.66699 18.8817 6.66699 17.501V15.001H8.33366Z" fill="#777E91"/>
<path fill-rule="evenodd" clip-rule="evenodd" d="M12.4997 11.0721L13.1239 10.5717C14.2704 9.65265 14.9997 8.24588 14.9997 6.66764C14.9997 3.90622 12.7611 1.66764 9.99967 1.66764C7.23825 1.66764 4.99967 3.90622 4.99967 6.66764C4.99967 8.24588 5.72898 9.65265 6.87546 10.5717L7.49967 11.0721V13.3343C7.49967 13.7945 7.87277 14.1676 8.33301 14.1676H11.6663C12.1266 14.1676 12.4997 13.7945 12.4997 13.3343V11.0721ZM14.1663 11.8721V13.3343C14.1663 14.715 13.0471 15.8343 11.6663 15.8343H8.33301C6.9523 15.8343 5.83301 14.715 5.83301 13.3343V11.8721C4.3089 10.6504 3.33301 8.77296 3.33301 6.66764C3.33301 2.98574 6.31778 0.000976562 9.99967 0.000976562C13.6816 0.000976562 16.6663 2.98574 16.6663 6.66764C16.6663 8.77296 15.6904 10.6504 14.1663 11.8721Z" fill="#777E91"/>
<path d="M8.92259 6.91168C8.59715 6.58624 8.06951 6.58624 7.74408 6.91168C7.41864 7.23712 7.41864 7.76475 7.74408 8.09019L9.16667 9.51278V14.1676H10.8333V9.51278L12.2559 8.09019C12.5814 7.76475 12.5814 7.23712 12.2559 6.91168C11.9305 6.58624 11.4028 6.58624 11.0774 6.91168L10 7.98909L8.92259 6.91168Z" fill="#777E91"/>
</g>
<defs>
<clipPath id="clip0_1_68957">
<rect width="20" height="20" fill="white" transform="translate(0 0.000976562)"/>
</clipPath>
</defs>
</svg>
