<svg width="28" height="24" viewBox="0 0 28 24" fill="none" xmlns="http://www.w3.org/2000/svg">
<path fill-rule="evenodd" clip-rule="evenodd" d="M0.717773 5.375C0.717773 4.06332 1.90556 3 3.37076 3H24.5946C26.0538 3 27.2476 4.05687 27.2476 5.375V10.125C25.7885 10.125 24.5946 11.1819 24.5946 12.5C24.5946 13.8117 25.7824 14.875 27.2476 14.875V19.625C27.2476 20.9367 26.0598 22 24.5946 22H3.37076C1.90556 22 0.717773 20.9367 0.717773 19.625V14.875C2.18298 14.875 3.37076 13.8117 3.37076 12.5C3.37076 11.1938 2.19018 10.125 0.717773 10.125V5.375ZM20.6152 8.34375L18.6254 6.5625L7.35023 16.6562L9.33997 18.4375L20.6152 8.34375ZM9.75119 6.61C11.0511 6.61 12.0991 7.54812 12.0991 8.71187C12.0991 9.87271 11.0479 10.8138 9.75119 10.8138C8.45122 10.8138 7.40329 9.87563 7.40329 8.71187C7.40329 7.55104 8.45448 6.61 9.75119 6.61ZM20.5621 16.2881C20.5621 15.1244 19.5142 14.1862 18.2142 14.1862C16.9175 14.1862 15.8663 15.1273 15.8663 16.2881C15.8663 17.4519 16.9142 18.39 18.2142 18.39C19.5109 18.39 20.5621 17.449 20.5621 16.2881Z" fill="#141416"/>
</svg>
