<svg width="16" height="16" viewBox="0 0 16 16" fill="none" xmlns="http://www.w3.org/2000/svg">
<path fill-rule="evenodd" clip-rule="evenodd" d="M13.3337 3.33431H2.66699C2.2988 3.33431 2.00033 3.63279 2.00033 4.00098V12.001C2.00033 12.3692 2.2988 12.6676 2.66699 12.6676H13.3337C13.7018 12.6676 14.0003 12.3692 14.0003 12.001V4.00098C14.0003 3.63279 13.7018 3.33431 13.3337 3.33431ZM2.66699 2.00098C1.56242 2.00098 0.666992 2.89641 0.666992 4.00098V12.001C0.666992 13.1055 1.56242 14.001 2.66699 14.001H13.3337C14.4382 14.001 15.3337 13.1055 15.3337 12.001V4.00098C15.3337 2.89641 14.4382 2.00098 13.3337 2.00098H2.66699Z" fill="#777E91"/>
<path d="M5.33301 10.3342C5.33301 10.8865 4.88529 11.3342 4.33301 11.3342C3.78072 11.3342 3.33301 10.8865 3.33301 10.3342C3.33301 9.78194 3.78072 9.33423 4.33301 9.33423C4.88529 9.33423 5.33301 9.78194 5.33301 10.3342Z" fill="#777E91"/>
<path d="M8.66699 10.3342C8.66699 10.8865 8.21928 11.3342 7.66699 11.3342C7.11471 11.3342 6.66699 10.8865 6.66699 10.3342C6.66699 9.78194 7.11471 9.33423 7.66699 9.33423C8.21928 9.33423 8.66699 9.78194 8.66699 10.3342Z" fill="#777E91"/>
<path d="M0.666992 5.33423H15.3337V6.66756H0.666992V5.33423Z" fill="#777E91"/>
</svg>
