<svg width="41" height="52" viewBox="0 0 41 52" fill="none" xmlns="http://www.w3.org/2000/svg">
<g id="Group">
<path id="Vector" d="M38.0714 0C38.7887 9.33473e-05 39.4811 0.259889 40.0171 0.730111C40.5531 1.20033 40.8956 1.84828 40.9795 2.55105L41 2.88907V49.1141C40.9992 49.8505 40.7134 50.5588 40.2009 51.0942C39.6885 51.6297 38.9882 51.9519 38.2431 51.995C37.4979 52.0382 36.7642 51.799 36.1918 51.3264C35.6194 50.8538 35.2515 50.1834 35.1634 49.4522L35.1429 49.1141V34.6688H32.2143C31.497 34.6687 30.8047 34.4089 30.2686 33.9387C29.7326 33.4685 29.3901 32.8205 29.3062 32.1178L29.2857 31.7797V14.4453C29.2857 8.0605 33.6786 0 38.0714 0ZM20.5 0C21.2173 9.33473e-05 21.9096 0.259889 22.4457 0.730111C22.9817 1.20033 23.3241 1.84828 23.4081 2.55105L23.4286 2.88907V17.3344C23.4282 19.8966 22.5652 22.3862 20.9749 24.412C19.3847 26.4378 17.1574 27.8851 14.6429 28.5266V49.1141C14.642 49.8505 14.3562 50.5588 13.8438 51.0942C13.3314 51.6297 12.6311 51.9519 11.8859 51.995C11.1408 52.0382 10.407 51.799 9.83463 51.3264C9.26224 50.8538 8.89437 50.1834 8.80621 49.4522L8.78571 49.1141V28.5266C6.37097 27.9108 4.21834 26.5511 2.64088 24.6452C1.06343 22.7394 0.143413 20.3868 0.0146432 17.9295L0 17.3344V2.88907C0.000827929 2.1527 0.286645 1.44444 0.799055 0.908992C1.31147 0.373544 2.01179 0.0513243 2.75694 0.00816994C3.50209 -0.0349844 4.23583 0.204184 4.80822 0.676807C5.38062 1.14943 5.74848 1.81984 5.83664 2.55105L5.85714 2.88907V17.3344C5.85717 18.3486 6.12782 19.345 6.64189 20.2234C7.15596 21.1017 7.89534 21.8311 8.78571 22.3383V2.88907C8.78654 2.1527 9.07236 1.44444 9.58477 0.908992C10.0972 0.373544 10.7975 0.0513243 11.5427 0.00816994C12.2878 -0.0349844 13.0215 0.204184 13.5939 0.676807C14.1663 1.14943 14.5342 1.81984 14.6224 2.55105L14.6429 2.88907L14.6458 22.3383C15.463 21.8722 16.154 21.2183 16.6598 20.432C17.1657 19.6458 17.4714 18.7506 17.5509 17.8227L17.5714 17.3344V2.88907C17.5714 2.12284 17.88 1.38799 18.4292 0.846188C18.9784 0.304383 19.7233 0 20.5 0Z" fill="black"/>
</g>
</svg>
