<svg width="20" height="20" viewBox="0 0 20 20" fill="none" xmlns="http://www.w3.org/2000/svg">
<path fill-rule="evenodd" clip-rule="evenodd" d="M10.0003 3.33427C8.37347 3.33427 6.87379 3.46844 5.67008 3.62742C4.58676 3.77049 3.76988 4.58737 3.6268 5.67069C3.46783 6.8744 3.33366 8.37408 3.33366 10.0009C3.33366 11.6278 3.46783 13.1275 3.6268 14.3312C3.76988 15.4145 4.58676 16.2314 5.67008 16.3745C6.87379 16.5334 8.37347 16.6676 10.0003 16.6676C11.6272 16.6676 13.1269 16.5334 14.3306 16.3745C15.4139 16.2314 16.2308 15.4145 16.3738 14.3312C16.5328 13.1275 16.667 11.6278 16.667 10.0009C16.667 8.37408 16.5328 6.8744 16.3738 5.67069C16.2308 4.58737 15.4139 3.77049 14.3306 3.62742C13.1269 3.46844 11.6272 3.33427 10.0003 3.33427ZM5.45186 1.9751C3.6212 2.21687 2.21626 3.62181 1.97449 5.45247C1.80827 6.711 1.66699 8.28533 1.66699 10.0009C1.66699 11.7165 1.80827 13.2909 1.97449 14.5494C2.21626 16.3801 3.62119 17.785 5.45186 18.0268C6.71039 18.193 8.28472 18.3343 10.0003 18.3343C11.7159 18.3343 13.2903 18.193 14.5488 18.0268C16.3795 17.785 17.7844 16.3801 18.0262 14.5494C18.1924 13.2909 18.3337 11.7165 18.3337 10.0009C18.3337 8.28533 18.1924 6.711 18.0262 5.45247C17.7844 3.62181 16.3795 2.21687 14.5488 1.9751C13.2903 1.80888 11.7159 1.6676 10.0003 1.6676C8.28472 1.6676 6.71039 1.80888 5.45186 1.9751Z" fill="#777E91"/>
<path d="M7.49953 9.16768C8.42001 9.16768 9.1662 8.42149 9.1662 7.50102C9.1662 6.58054 8.42001 5.83435 7.49953 5.83435C6.57906 5.83435 5.83287 6.58054 5.83287 7.50102C5.83287 8.42149 6.57906 9.16768 7.49953 9.16768Z" fill="#777E91"/>
<path d="M15.1006 10.5904L16.5959 12.0857C16.5443 12.8659 16.469 13.5898 16.3859 14.2327L13.9221 11.7689C13.5967 11.4435 13.069 11.4435 12.7436 11.7689L10.934 13.5786C9.95765 14.5549 8.37474 14.5549 7.39843 13.5786L7.25545 13.4356C6.93001 13.1102 6.40238 13.1102 6.07694 13.4356L4.06939 15.4432C3.83682 15.1278 3.68122 14.7494 3.626 14.3313C3.59588 14.1032 3.56665 13.8646 3.53906 13.6165L4.89843 12.2571C5.87474 11.2808 7.45765 11.2808 8.43396 12.2571L8.57694 12.4001C8.90238 12.7255 9.43001 12.7255 9.75545 12.4001L11.5651 10.5904C12.5414 9.61412 14.1243 9.61412 15.1006 10.5904Z" fill="#777E91"/>
</svg>
