<svg width="27" height="24" viewBox="0 0 27 24" fill="none" xmlns="http://www.w3.org/2000/svg">
<path fill-rule="evenodd" clip-rule="evenodd" d="M11.9384 1.26591C6.40481 1.81929 2.01107 5.79406 1.39936 10.8H0V13.2H1.39936C2.01107 18.2059 6.40481 22.1807 11.9384 22.7341V24H14.5914V22.7341C20.125 22.1807 24.5188 18.2059 25.1305 13.2H26.5299V10.8H25.1305C24.5188 5.79406 20.125 1.81929 14.5914 1.26591V0H11.9384V1.26591ZM5.30597 10.8H4.07351C4.6552 7.12117 7.87182 4.21128 11.9384 3.68507V4.8H14.5914V3.68507C18.658 4.21128 21.8747 7.12117 22.4563 10.8H21.2239V13.2H22.4563C21.8747 16.8788 18.658 19.7887 14.5914 20.3149V19.2H11.9384V20.3149C7.87182 19.7887 4.6552 16.8788 4.07351 13.2H5.30597V10.8ZM13.2649 14.4C14.7301 14.4 15.9179 13.3255 15.9179 12C15.9179 10.6745 14.7301 9.6 13.2649 9.6C11.7997 9.6 10.6119 10.6745 10.6119 12C10.6119 13.3255 11.7997 14.4 13.2649 14.4ZM7.95895 12C7.95895 14.651 10.3345 16.8 13.2649 16.8C16.1953 16.8 18.5709 14.651 18.5709 12C18.5709 9.34903 16.1953 7.2 13.2649 7.2C10.3345 7.2 7.95895 9.34903 7.95895 12Z" fill="#141416"/>
</svg>
