<svg width="21" height="20" viewBox="0 0 21 20" fill="none" xmlns="http://www.w3.org/2000/svg">
<g id="Icons/20px/Search">
<path id="Icon" fill-rule="evenodd" clip-rule="evenodd" d="M15.1726 7.42857C15.1726 3.32588 11.8467 0 7.744 0C3.64131 0 0.31543 3.32588 0.31543 7.42857C0.31543 11.5313 3.64131 14.8571 7.744 14.8571C9.584 14.8571 11.2754 14.1829 12.5783 13.0743L12.8869 13.3829V14.2857L18.6011 20L20.3154 18.2857L14.6011 12.5714H13.6983L13.3897 12.2629C14.4983 10.96 15.1726 9.26857 15.1726 7.42857ZM2.60114 7.42857C2.60114 4.57143 4.88686 2.28571 7.744 2.28571C10.6011 2.28571 12.8869 4.57143 12.8869 7.42857C12.8869 10.2857 10.6011 12.5714 7.744 12.5714C4.88686 12.5714 2.60114 10.2857 2.60114 7.42857Z" fill="black"/>
</g>
</svg>
