<svg width="20" height="20" viewBox="0 0 20 20" fill="none" xmlns="http://www.w3.org/2000/svg">
<path fill-rule="evenodd" clip-rule="evenodd" d="M9.19058 12.5016C9.65049 12.4842 10.0374 12.843 10.0548 13.3029C10.0939 14.3397 10.1489 15.0965 10.2029 15.639C10.2562 16.1734 10.5787 16.4949 11.0284 16.5498C11.5586 16.6146 12.3065 16.6677 13.3329 16.6677C14.3593 16.6677 15.1073 16.6146 15.6375 16.5498C16.0869 16.4949 16.4096 16.1732 16.4629 15.6388C16.5632 14.6317 16.6662 12.8917 16.6662 10.001C16.6662 7.11034 16.5632 5.37036 16.4629 4.36325C16.4096 3.82879 16.0869 3.50715 15.6375 3.45221C15.1073 3.3874 14.3593 3.33435 13.3329 3.33435C12.3065 3.33435 11.5586 3.38739 11.0284 3.45221C10.5787 3.50717 10.2562 3.82867 10.2029 4.36299C10.1489 4.90556 10.0939 5.6623 10.0548 6.69912C10.0374 7.15903 9.65049 7.51779 9.19058 7.50042C8.73067 7.48306 8.37191 7.09616 8.38928 6.63625C8.42945 5.57205 8.48641 4.78054 8.54447 4.19778C8.66651 2.97264 9.52068 1.95744 10.8261 1.79786C11.4338 1.72357 12.2503 1.66768 13.3329 1.66768C14.4156 1.66768 15.232 1.72358 15.8397 1.79786C17.1453 1.95746 17.9993 2.97314 18.1213 4.19804C18.2288 5.27658 18.3329 7.07474 18.3329 10.001C18.3329 12.9273 18.2288 14.7254 18.1213 15.804C17.9993 17.0289 17.1453 18.0446 15.8397 18.2042C15.232 18.2785 14.4156 18.3344 13.3329 18.3344C12.2503 18.3344 11.4338 18.2785 10.8261 18.2042C9.52069 18.0446 8.66651 17.0294 8.54447 15.8043C8.48641 15.2215 8.42945 14.43 8.38928 13.3658C8.37191 12.9059 8.73067 12.519 9.19058 12.5016Z" fill="#777E91"/>
<path fill-rule="evenodd" clip-rule="evenodd" d="M6.00625 12.3284C6.33168 12.6538 6.33168 13.1815 6.00625 13.5069C5.68081 13.8323 5.15317 13.8323 4.82774 13.5069L1.91107 10.5902C1.58563 10.2648 1.58563 9.73716 1.91107 9.41172L4.82774 6.49505C5.15317 6.16962 5.68081 6.16962 6.00625 6.49505C6.33168 6.82049 6.33168 7.34813 6.00625 7.67357L4.51217 9.16764H12.5003C12.9606 9.16764 13.3337 9.54074 13.3337 10.001C13.3337 10.4612 12.9606 10.8343 12.5003 10.8343L4.51217 10.8343L6.00625 12.3284Z" fill="#777E91"/>
</svg>
