<svg width="24" height="24" viewBox="0 0 24 24" fill="none" xmlns="http://www.w3.org/2000/svg">
<g id="icons/Smile/Line">
<path id="Union" fill-rule="evenodd" clip-rule="evenodd" d="M4 12C4 7.58172 7.58172 4 12 4C16.4183 4 20 7.58172 20 12C20 16.4183 16.4183 20 12 20C7.58172 20 4 16.4183 4 12ZM12 2C6.47715 2 2 6.47715 2 12C2 17.5228 6.47715 22 12 22C17.5228 22 22 17.5228 22 12C22 6.47715 17.5228 2 12 2ZM8.97195 13.7648C8.84206 13.228 8.30161 12.8982 7.76481 13.028C7.22802 13.1579 6.89816 13.6984 7.02805 14.2352C7.29096 15.3217 7.9358 16.2791 8.84106 16.958C9.74527 17.6362 10.8592 18 12 18C13.1408 18 14.2547 17.6362 15.1589 16.958C16.0642 16.2791 16.709 15.3217 16.972 14.2352C17.1018 13.6984 16.772 13.1579 16.2352 13.028C15.6984 12.8982 15.1579 13.228 15.028 13.7648C14.8786 14.3824 14.5072 14.9468 13.9589 15.358C13.4096 15.77 12.719 16 12 16C11.281 16 10.5904 15.77 10.0411 15.358C9.49278 14.9468 9.12138 14.3824 8.97195 13.7648ZM10.1786 10.9839C9.63515 11.0825 9.11469 10.722 9.01607 10.1786C9.01169 10.1544 9.00616 10.1326 9 10.1131C8.99384 10.1326 8.98831 10.1544 8.98393 10.1786C8.88531 10.722 8.36485 11.0825 7.82144 10.9839C7.27803 10.8853 6.91745 10.3648 7.01607 9.82144C7.09929 9.36286 7.31014 8.91656 7.65316 8.57354C8.00072 8.22598 8.47316 8 9 8C9.52683 8 9.99928 8.22598 10.3468 8.57354C10.6899 8.91656 10.9007 9.36286 10.9839 9.82144C11.0825 10.3648 10.722 10.8853 10.1786 10.9839ZM15.0161 10.1786C15.1147 10.722 15.6352 11.0825 16.1786 10.9839C16.722 10.8853 17.0825 10.3648 16.9839 9.82144C16.9007 9.36286 16.6899 8.91656 16.3468 8.57354C15.9993 8.22598 15.5268 8 15 8C14.4732 8 14.0007 8.22598 13.6532 8.57354C13.3101 8.91656 13.0993 9.36286 13.0161 9.82144C12.9175 10.3648 13.278 10.8853 13.8214 10.9839C14.3648 11.0825 14.8853 10.722 14.9839 10.1786C14.9883 10.1544 14.9938 10.1326 15 10.1131C15.0062 10.1326 15.0117 10.1544 15.0161 10.1786Z" fill="#777E91"/>
</g>
</svg>
