<svg width="64" height="16" viewBox="0 0 64 16" fill="none" xmlns="http://www.w3.org/2000/svg">
<g clip-path="url(#clip0_1351_3593)">
<path d="M29.8963 13.0729H27.2112L28.8906 2.68835H31.5756L29.8963 13.0729Z" fill="#00579F"/>
<path d="M39.63 2.94211C39.1004 2.73199 38.2604 2.5 37.2217 2.5C34.5701 2.5 32.7028 3.91399 32.6914 5.93556C32.6693 7.42707 34.0283 8.25549 35.0446 8.75281C36.0835 9.26099 36.4366 9.59269 36.4366 10.0457C36.426 10.7413 35.5971 11.062 34.8241 11.062C33.7521 11.062 33.1777 10.8967 32.3048 10.5096L31.9512 10.3437L31.5754 12.6748C32.2052 12.9617 33.3655 13.2163 34.5701 13.2275C37.3875 13.2275 39.2217 11.8354 39.2434 9.68108C39.2541 8.49894 38.5366 7.59314 36.9895 6.85296C36.0504 6.37782 35.4753 6.05743 35.4753 5.57127C35.4863 5.12931 35.9617 4.67663 37.0219 4.67663C37.8948 4.65446 38.5361 4.86428 39.022 5.07425L39.2648 5.18452L39.63 2.94211Z" fill="#00579F"/>
<path d="M43.1987 9.39399C43.4199 8.79742 44.2707 6.4885 44.2707 6.4885C44.2596 6.51067 44.4914 5.88091 44.624 5.4943L44.8117 6.38909C44.8117 6.38909 45.3201 8.8748 45.4306 9.39399H43.1987ZM46.5132 2.68835H44.4362C43.7957 2.68835 43.3091 2.876 43.0328 3.54996L39.0444 13.0727H41.8618C41.8618 13.0727 42.3257 11.791 42.4254 11.515H45.8728C45.9499 11.8796 46.1932 13.0727 46.1932 13.0727H48.6794L46.5132 2.68835Z" fill="#00579F"/>
<path d="M24.9684 2.68835L22.3388 9.76959L22.0514 8.33343C21.5653 6.67629 20.0406 4.87585 18.3391 3.98062L20.7477 13.0618H23.5872L27.8077 2.68835H24.9684Z" fill="#00579F"/>
<path d="M19.897 2.68835H15.5769L15.5327 2.89818C18.9026 3.75993 21.1345 5.83715 22.0514 8.33387L21.1123 3.56127C20.9577 2.89803 20.4825 2.71023 19.897 2.68835Z" fill="#404040"/>
</g>
<defs>
<clipPath id="clip0_1351_3593">
<rect width="33.2121" height="10.7275" fill="white" transform="translate(15.5 2.5)"/>
</clipPath>
</defs>
</svg>
