<svg width="24" height="24" viewBox="0 0 24 24" fill="none" xmlns="http://www.w3.org/2000/svg">
<rect width="24" height="24" fill="#F5F5F5"/>
<g id="product info" clip-path="url(#clip0_0_1)">
<rect width="1440" height="2896" transform="translate(-1248 -409)" fill="white"/>
<g id="action icons">
<g id="love" filter="url(#filter0_d_0_1)">
<rect x="-8" y="-8" width="40" height="40" rx="20" fill="#FCFCFD"/>
<g id="icons/Heart/Line">
<path id="Shape" fill-rule="evenodd" clip-rule="evenodd" d="M12.6924 6.91706C12.3055 7.28838 11.6945 7.28838 11.3076 6.91706L10.6152 6.2526C9.80477 5.47487 8.70994 5 7.5 5C5.01472 5 3 7.01472 3 9.5C3 11.8826 4.28979 13.8501 6.15176 15.4666C8.01532 17.0844 10.2434 18.1574 11.5746 18.7051C11.853 18.8196 12.147 18.8196 12.4254 18.7051C13.7566 18.1574 15.9847 17.0844 17.8482 15.4666C19.7102 13.85 21 11.8826 21 9.5C21 7.01472 18.9853 5 16.5 5C15.2901 5 14.1952 5.47487 13.3848 6.2526L12.6924 6.91706ZM12 4.80957C10.8321 3.6888 9.24649 3 7.5 3C3.91015 3 1 5.91015 1 9.5C1 15.8683 7.97034 19.385 10.8138 20.5547C11.5796 20.8697 12.4204 20.8697 13.1862 20.5547C16.0297 19.385 23 15.8682 23 9.5C23 5.91015 20.0899 3 16.5 3C14.7535 3 13.1679 3.6888 12 4.80957Z" fill="#777E91"/>
</g>
<rect x="-7" y="-7" width="38" height="38" rx="19" stroke="#E6E8EC" stroke-width="2"/>
</g>
</g>
</g>
<defs>
<filter id="filter0_d_0_1" x="-24" y="-8" width="72" height="120" filterUnits="userSpaceOnUse" color-interpolation-filters="sRGB">
<feFlood flood-opacity="0" result="BackgroundImageFix"/>
<feColorMatrix in="SourceAlpha" type="matrix" values="0 0 0 0 0 0 0 0 0 0 0 0 0 0 0 0 0 0 127 0" result="hardAlpha"/>
<feMorphology radius="48" operator="erode" in="SourceAlpha" result="effect1_dropShadow_0_1"/>
<feOffset dy="64"/>
<feGaussianBlur stdDeviation="32"/>
<feColorMatrix type="matrix" values="0 0 0 0 0.121458 0 0 0 0 0.182875 0 0 0 0 0.275 0 0 0 0.12 0"/>
<feBlend mode="multiply" in2="BackgroundImageFix" result="effect1_dropShadow_0_1"/>
<feBlend mode="normal" in="SourceGraphic" in2="effect1_dropShadow_0_1" result="shape"/>
</filter>
<clipPath id="clip0_0_1">
<rect width="1440" height="2896" fill="white" transform="translate(-1248 -409)"/>
</clipPath>
</defs>
</svg>
